<svg class="animated" id="freepik_stories-astronaut-helmet" xmlns="http://www.w3.org/2000/svg" viewBox="0 0 500 500" version="1.1" xmlns:xlink="http://www.w3.org/1999/xlink" xmlns:svgjs="http://svgjs.com/svgjs"><style>svg#freepik_stories-astronaut-helmet:not(.animated) .animable {opacity: 0;}svg#freepik_stories-astronaut-helmet.animated #freepik--astronaut-helmet--inject-1 {animation: 3s Infinite  linear floating;animation-delay: 0s;}            @keyframes floating {                0% {                    opacity: 1;                    transform: translateY(0px);                }                50% {                    transform: translateY(-10px);                }                100% {                    opacity: 1;                    transform: translateY(0px);                }            }        </style><g id="freepik--Space--inject-1" class="animable" style="transform-origin: 256.316px 244.137px;"><path d="M153.48,388.65c43.58,12.1,99.91,19.46,148.82,25.67,49.3,5.23,91.19,9.3,114.65-7.72,14.69-10.38,21.87-28.15,23.53-53.07,3.17-54.83-20-152.14-80.84-222.22-27.94-31.68-60.57-52-93.45-59a131.86,131.86,0,0,0-13.47-2.16c-31.23-3.42-61.81,5.17-88,23.29-29,19.9-52.63,51.29-68.75,87.42C72.29,235.57,67,286.71,76,321.36,85.43,357,109.11,376.07,153.48,388.65Z" style="fill: rgb(38, 50, 56); transform-origin: 256.316px 244.137px;" id="el8h5h7jdurv9" class="animable"></path><g id="eluo9rlozuc9"><path d="M152.38,139.88c15.11,7,32,7.92,21.49,37.69-10.41,30.22-10.58,50.81,8.36,53.65,19,3.28,33.88,29.94,48.47,24.15,14.57-6.21-30.14-9.5-38.69-43.32-4.37-17.85-8.73-42.29-2.61-69.44,6.18-26.64,22.85-56,61.82-71.84l1.5-.58c-31.23-3.42-61.81,5.17-88,23.29C148.87,115,141.66,135.11,152.38,139.88Z" style="fill: rgb(255, 255, 255); opacity: 0.1; transform-origin: 200.005px 162.821px;" class="animable"></path></g><g id="eln1395qkaw8"><path d="M226.07,157.13c6.34,29.13,20.37,53.38,44.62,67.18,24.05,14.16,58.32,17.87,100.64,14.14,43-2.71,59.53,35.2,49.05,51.37-8.2,13-48.88,0-86.56-4.68-37.43-4.56,12.75,21.54,34.68,18.9,21.82-2.9,21.9-3.52,50.58,21.7,8.36,7.83,15.52,18.61,21.4,27.79,3.17-54.83-20-152.14-80.84-222.22-27.94-31.68-60.57-52-93.45-59C233.48,87.33,219.5,127,226.07,157.13Z" style="fill: rgb(255, 255, 255); opacity: 0.1; transform-origin: 332.625px 212.92px;" class="animable"></path></g><g id="eltiofh8ibssr"><path d="M394.33,367.63c9.05-12.54-15.33-13.34-29.54-11-13.55.53-63.57-1.94-94.55-13.6-30.67-12.37,1.42,18.51,16.08,13.26s18.66,6.39,38.4,12.53c19.65,6.65,29.18-2.27,38.64-.74S389.62,374.1,394.33,367.63Z" style="fill: rgb(255, 255, 255); opacity: 0.1; transform-origin: 326.855px 355.698px;" class="animable"></path></g><g id="elgf92gdrvylc"><path d="M100.72,261.58c10.16-19.75,14,10.33,17.61,24.24,3.44,13.48,28.82,17.23,27.06,25.14-2,7.37-16.84,2.81-18.91-2S121.9,291.66,113,296.18s-16.48-1.61-11.46-15.65S96.39,270,100.72,261.58Z" style="fill: rgb(255, 255, 255); opacity: 0.1; transform-origin: 122.547px 284.945px;" class="animable"></path></g></g><g id="freepik--Stars--inject-1" class="animable" style="transform-origin: 248.745px 232.205px;"><polygon points="187.06 130.83 187.98 129.58 186.71 130.47 186.48 128.93 186.2 130.46 184.95 129.54 185.84 130.81 184.3 131.04 185.83 131.32 184.91 132.57 186.19 131.68 186.42 133.22 186.69 131.69 187.94 132.61 187.05 131.34 188.59 131.1 187.06 130.83" style="fill: rgb(101, 19, 97); transform-origin: 186.445px 131.075px;" id="el7skefcuf88p" class="animable"></polygon><polygon points="380.51 324.79 381.44 323.54 380.16 324.43 379.93 322.89 379.66 324.42 378.41 323.5 379.29 324.77 377.76 325 379.29 325.28 378.36 326.53 379.64 325.64 379.87 327.18 380.14 325.64 381.39 326.57 380.51 325.29 382.04 325.06 380.51 324.79" style="fill: rgb(101, 19, 97); transform-origin: 379.9px 325.035px;" id="el0zeolzq3q6xc" class="animable"></polygon><polygon points="259.8 84.98 260.72 83.73 259.44 84.61 259.21 83.08 258.94 84.61 257.69 83.68 258.58 84.96 257.04 85.19 258.57 85.46 257.64 86.71 258.92 85.83 259.15 87.36 259.43 85.83 260.68 86.76 259.79 85.48 261.32 85.25 259.8 84.98" style="fill: rgb(101, 19, 97); transform-origin: 259.18px 85.22px;" id="elfmcsvuyxjbe" class="animable"></polygon><polygon points="166.75 164.63 168.91 166.22 167.38 164.03 170.03 163.63 167.39 163.16 168.98 161 166.78 162.53 166.39 159.88 165.91 162.52 163.76 160.93 165.29 163.13 162.64 163.52 165.28 164 163.69 166.15 165.88 164.62 166.28 167.27 166.75 164.63" style="fill: rgb(101, 19, 97); transform-origin: 166.335px 163.575px;" id="elo6ng09ee9gm" class="animable"></polygon><polygon points="133.86 136.51 135.45 134.36 133.25 135.89 132.86 133.24 132.38 135.88 130.23 134.29 131.76 136.48 129.11 136.88 131.75 137.35 130.16 139.51 132.35 137.98 132.75 140.63 133.22 137.99 135.38 139.58 133.85 137.38 136.5 136.99 133.86 136.51" style="fill: rgb(101, 19, 97); transform-origin: 132.805px 136.935px;" id="elp91lo3omfsm" class="animable"></polygon><polygon points="238.79 373.11 240.38 370.95 238.19 372.48 237.79 369.83 237.31 372.47 235.16 370.88 236.69 373.08 234.04 373.47 236.68 373.95 235.09 376.1 237.29 374.57 237.68 377.22 238.16 374.58 240.31 376.17 238.78 373.98 241.43 373.58 238.79 373.11" style="fill: rgb(101, 19, 97); transform-origin: 237.735px 373.525px;" id="el7g272f4khyx" class="animable"></polygon><polygon points="280.65 287.9 282.24 285.75 280.04 287.28 279.64 284.63 279.17 287.27 277.02 285.68 278.55 287.88 275.9 288.27 278.54 288.75 276.94 290.9 279.14 289.37 279.54 292.02 280.01 289.38 282.17 290.97 280.64 288.78 283.28 288.38 280.65 287.9" style="fill: rgb(101, 19, 97); transform-origin: 279.59px 288.325px;" id="elqqnikynlhgc" class="animable"></polygon><polygon points="159.16 322.89 160.75 320.74 158.56 322.26 158.16 319.62 157.69 322.25 155.53 320.66 157.06 322.86 154.41 323.26 157.05 323.73 155.46 325.88 157.66 324.35 158.06 327 158.53 324.37 160.68 325.96 159.15 323.76 161.8 323.36 159.16 322.89" style="fill: rgb(101, 19, 97); transform-origin: 158.105px 323.31px;" id="elfr17n8627wl" class="animable"></polygon><polygon points="244.63 181.47 247.35 177.79 243.59 180.4 242.91 175.87 242.1 180.38 238.42 177.66 241.03 181.42 236.5 182.1 241.01 182.91 238.29 186.59 242.05 183.97 242.73 188.5 243.54 184 247.22 186.72 244.61 182.96 249.13 182.28 244.63 181.47" style="fill: rgb(101, 19, 97); transform-origin: 242.815px 182.185px;" id="ela8xpl8stl94" class="animable"></polygon><polygon points="327.21 374.3 329.93 370.61 326.17 373.23 325.49 368.7 324.68 373.21 321 370.49 323.61 374.25 319.08 374.93 323.59 375.73 320.87 379.42 324.63 376.8 325.31 381.33 326.12 376.82 329.8 379.54 327.19 375.78 331.71 375.1 327.21 374.3" style="fill: rgb(101, 19, 97); transform-origin: 325.395px 375.015px;" id="elu40ebdv8zbq" class="animable"></polygon><polygon points="174.73 269.83 177.45 266.15 173.69 268.76 173.01 264.24 172.2 268.74 168.52 266.02 171.13 269.78 166.6 270.46 171.11 271.27 168.39 274.95 172.15 272.34 172.83 276.87 173.64 272.36 177.32 275.08 174.71 271.32 179.24 270.64 174.73 269.83" style="fill: rgb(101, 19, 97); transform-origin: 172.92px 270.555px;" id="el2pm370uz0fx" class="animable"></polygon><polygon points="395.31 241.18 399.84 240.5 395.33 239.69 398.05 236 394.29 238.62 393.61 234.09 392.8 238.6 389.12 235.88 391.73 239.63 387.21 240.31 391.71 241.12 388.99 244.81 392.75 242.19 393.43 246.72 394.24 242.21 397.92 244.93 395.31 241.18" style="fill: rgb(101, 19, 97); transform-origin: 393.525px 240.405px;" id="el207iwppb7it" class="animable"></polygon><polygon points="105.77 224.5 108.49 220.82 104.73 223.43 104.06 218.91 103.25 223.41 99.56 220.69 102.18 224.45 97.65 225.13 102.16 225.94 99.44 229.62 103.2 227.01 103.88 231.54 104.68 227.03 108.37 229.75 105.75 225.99 110.28 225.31 105.77 224.5" style="fill: rgb(101, 19, 97); transform-origin: 103.965px 225.225px;" id="elkkbxviypl2" class="animable"></polygon><g id="eljmchi7q3ntj"><g style="opacity: 0.4; transform-origin: 248.745px 232.205px;" class="animable"><polygon points="187.06 130.83 187.98 129.58 186.71 130.47 186.48 128.93 186.2 130.46 184.95 129.54 185.84 130.81 184.3 131.04 185.83 131.32 184.91 132.57 186.19 131.68 186.42 133.22 186.69 131.69 187.94 132.61 187.05 131.34 188.59 131.1 187.06 130.83" style="fill: rgb(255, 255, 255); transform-origin: 186.445px 131.075px;" id="elb96iq04962i" class="animable"></polygon><polygon points="380.51 324.79 381.44 323.54 380.16 324.43 379.93 322.89 379.66 324.42 378.41 323.5 379.29 324.77 377.76 325 379.29 325.28 378.36 326.53 379.64 325.64 379.87 327.18 380.14 325.64 381.39 326.57 380.51 325.29 382.04 325.06 380.51 324.79" style="fill: rgb(255, 255, 255); transform-origin: 379.9px 325.035px;" id="elyg5ztnjb1kj" class="animable"></polygon><polygon points="259.8 84.98 260.72 83.73 259.44 84.61 259.21 83.08 258.94 84.61 257.69 83.68 258.58 84.96 257.04 85.19 258.57 85.46 257.64 86.71 258.92 85.83 259.15 87.36 259.43 85.83 260.68 86.76 259.79 85.48 261.32 85.25 259.8 84.98" style="fill: rgb(255, 255, 255); transform-origin: 259.18px 85.22px;" id="el8fdls3fdtyn" class="animable"></polygon><polygon points="166.75 164.63 168.91 166.22 167.38 164.03 170.03 163.63 167.39 163.16 168.98 161 166.78 162.53 166.39 159.88 165.91 162.52 163.76 160.93 165.29 163.13 162.64 163.52 165.28 164 163.69 166.15 165.88 164.62 166.28 167.27 166.75 164.63" style="fill: rgb(255, 255, 255); transform-origin: 166.335px 163.575px;" id="ell0xuif8de3d" class="animable"></polygon><polygon points="133.86 136.51 135.45 134.36 133.25 135.89 132.86 133.24 132.38 135.88 130.23 134.29 131.76 136.48 129.11 136.88 131.75 137.35 130.16 139.51 132.35 137.98 132.75 140.63 133.22 137.99 135.38 139.58 133.85 137.38 136.5 136.99 133.86 136.51" style="fill: rgb(255, 255, 255); transform-origin: 132.805px 136.935px;" id="elaw9skm37d5m" class="animable"></polygon><polygon points="238.79 373.11 240.38 370.95 238.19 372.48 237.79 369.83 237.31 372.47 235.16 370.88 236.69 373.08 234.04 373.47 236.68 373.95 235.09 376.1 237.29 374.57 237.68 377.22 238.16 374.58 240.31 376.17 238.78 373.98 241.43 373.58 238.79 373.11" style="fill: rgb(255, 255, 255); transform-origin: 237.735px 373.525px;" id="elo5xeos856k" class="animable"></polygon><polygon points="280.65 287.9 282.24 285.75 280.04 287.28 279.64 284.63 279.17 287.27 277.02 285.68 278.55 287.88 275.9 288.27 278.54 288.75 276.94 290.9 279.14 289.37 279.54 292.02 280.01 289.38 282.17 290.97 280.64 288.78 283.28 288.38 280.65 287.9" style="fill: rgb(255, 255, 255); transform-origin: 279.59px 288.325px;" id="eli0ta9oulc18" class="animable"></polygon><polygon points="159.16 322.89 160.75 320.74 158.56 322.26 158.16 319.62 157.69 322.25 155.53 320.66 157.06 322.86 154.41 323.26 157.05 323.73 155.46 325.88 157.66 324.35 158.06 327 158.53 324.37 160.68 325.96 159.15 323.76 161.8 323.36 159.16 322.89" style="fill: rgb(255, 255, 255); transform-origin: 158.105px 323.31px;" id="elu6aro79h6f" class="animable"></polygon><polygon points="244.63 181.47 247.35 177.79 243.59 180.4 242.91 175.87 242.1 180.38 238.42 177.66 241.03 181.42 236.5 182.1 241.01 182.91 238.29 186.59 242.05 183.97 242.73 188.5 243.54 184 247.22 186.72 244.61 182.96 249.13 182.28 244.63 181.47" style="fill: rgb(255, 255, 255); transform-origin: 242.815px 182.185px;" id="el1jn1sws14if" class="animable"></polygon><polygon points="327.21 374.3 329.93 370.61 326.17 373.23 325.49 368.7 324.68 373.21 321 370.49 323.61 374.25 319.08 374.93 323.59 375.73 320.87 379.42 324.63 376.8 325.31 381.33 326.12 376.82 329.8 379.54 327.19 375.78 331.71 375.1 327.21 374.3" style="fill: rgb(255, 255, 255); transform-origin: 325.395px 375.015px;" id="el5ib42ie4irt" class="animable"></polygon><polygon points="174.73 269.83 177.45 266.15 173.69 268.76 173.01 264.24 172.2 268.74 168.52 266.02 171.13 269.78 166.6 270.46 171.11 271.27 168.39 274.95 172.15 272.34 172.83 276.87 173.64 272.36 177.32 275.08 174.71 271.32 179.24 270.64 174.73 269.83" style="fill: rgb(255, 255, 255); transform-origin: 172.92px 270.555px;" id="elylkzvjhm4hm" class="animable"></polygon><polygon points="395.31 241.18 399.84 240.5 395.33 239.69 398.05 236 394.29 238.62 393.61 234.09 392.8 238.6 389.12 235.88 391.73 239.63 387.21 240.31 391.71 241.12 388.99 244.81 392.75 242.19 393.43 246.72 394.24 242.21 397.92 244.93 395.31 241.18" style="fill: rgb(255, 255, 255); transform-origin: 393.525px 240.405px;" id="eletmrki74bun" class="animable"></polygon><polygon points="105.77 224.5 108.49 220.82 104.73 223.43 104.06 218.91 103.25 223.41 99.56 220.69 102.18 224.45 97.65 225.13 102.16 225.94 99.44 229.62 103.2 227.01 103.88 231.54 104.68 227.03 108.37 229.75 105.75 225.99 110.28 225.31 105.77 224.5" style="fill: rgb(255, 255, 255); transform-origin: 103.965px 225.225px;" id="elu1g0fqil5dr" class="animable"></polygon></g></g><path d="M186.74,131.38a.42.42,0,0,0-.59-.61.43.43,0,0,0,0,.6A.42.42,0,0,0,186.74,131.38Z" style="fill: rgb(101, 19, 97); transform-origin: 186.449px 131.074px;" id="elh5q1hz03v7" class="animable"></path><path d="M380.2,325.34a.44.44,0,0,0,0-.61.43.43,0,0,0-.62.6A.44.44,0,0,0,380.2,325.34Z" style="fill: rgb(101, 19, 97); transform-origin: 379.891px 325.031px;" id="elprgv97mz21p" class="animable"></path><path d="M259.48,85.53a.43.43,0,1,0-.6,0A.43.43,0,0,0,259.48,85.53Z" style="fill: rgb(101, 19, 97); transform-origin: 259.18px 85.222px;" id="el18gj2mtspnp" class="animable"></path><path d="M166.85,164.1a.74.74,0,0,0-1-1,.74.74,0,1,0,1,1Z" style="fill: rgb(101, 19, 97); transform-origin: 166.196px 163.754px;" id="elbkd1ztc63js" class="animable"></path><path d="M133.32,137.46a.74.74,0,0,0,0-1,.74.74,0,0,0-1.05,1A.74.74,0,0,0,133.32,137.46Z" style="fill: rgb(101, 19, 97); transform-origin: 132.836px 137.003px;" id="el3o4a67wgstd" class="animable"></path><path d="M238.25,374.05a.73.73,0,0,0,0-1,.74.74,0,1,0-1,1A.73.73,0,0,0,238.25,374.05Z" style="fill: rgb(101, 19, 97); transform-origin: 237.652px 373.452px;" id="el28rxq8f9cfr" class="animable"></path><path d="M280.1,288.85a.73.73,0,0,0,0-1,.74.74,0,0,0-1.06,1A.73.73,0,0,0,280.1,288.85Z" style="fill: rgb(101, 19, 97); transform-origin: 279.608px 288.391px;" id="el978o1swcgq" class="animable"></path><path d="M158.62,323.84a.73.73,0,0,0,0-1,.73.73,0,1,0,0,1Z" style="fill: rgb(101, 19, 97); transform-origin: 158.088px 323.34px;" id="el5828s367x2x" class="animable"></path><path d="M243.7,183.09a1.26,1.26,0,1,0-1.76-1.8,1.24,1.24,0,0,0,0,1.77A1.26,1.26,0,0,0,243.7,183.09Z" style="fill: rgb(101, 19, 97); transform-origin: 242.845px 182.162px;" id="el9ytsqhjrgi5" class="animable"></path><path d="M326.28,375.92a1.26,1.26,0,1,0-1.78,0A1.26,1.26,0,0,0,326.28,375.92Z" style="fill: rgb(101, 19, 97); transform-origin: 325.39px 375.028px;" id="ellc4fktm09rc" class="animable"></path><path d="M173.8,271.45a1.26,1.26,0,1,0-1.78,0A1.25,1.25,0,0,0,173.8,271.45Z" style="fill: rgb(101, 19, 97); transform-origin: 172.91px 270.56px;" id="elalrlrcqatj" class="animable"></path><path d="M394.4,241.31a1.26,1.26,0,1,0-1.78,0A1.25,1.25,0,0,0,394.4,241.31Z" style="fill: rgb(101, 19, 97); transform-origin: 393.51px 240.42px;" id="elerretzei1lm" class="animable"></path><path d="M104.84,226.12a1.26,1.26,0,1,0-1.78,0A1.26,1.26,0,0,0,104.84,226.12Z" style="fill: rgb(101, 19, 97); transform-origin: 103.95px 225.228px;" id="el05jpc3zfe0sb" class="animable"></path><g id="elahfrxt7vjdp"><g style="opacity: 0.8; transform-origin: 248.73px 230.54px;" class="animable"><path d="M186.74,131.38a.42.42,0,0,0-.59-.61.43.43,0,0,0,0,.6A.42.42,0,0,0,186.74,131.38Z" style="fill: rgb(255, 255, 255); transform-origin: 186.449px 131.074px;" id="elwpjd61rop7r" class="animable"></path><path d="M380.2,325.34a.44.44,0,0,0,0-.61.43.43,0,0,0-.62.6A.44.44,0,0,0,380.2,325.34Z" style="fill: rgb(255, 255, 255); transform-origin: 379.891px 325.031px;" id="elwt0w72knh5" class="animable"></path><path d="M259.48,85.53a.43.43,0,1,0-.6,0A.43.43,0,0,0,259.48,85.53Z" style="fill: rgb(255, 255, 255); transform-origin: 259.18px 85.222px;" id="elxczaw4s4cw" class="animable"></path><path d="M166.85,164.1a.74.74,0,0,0-1-1,.74.74,0,1,0,1,1Z" style="fill: rgb(255, 255, 255); transform-origin: 166.196px 163.754px;" id="el5z36mxeekq" class="animable"></path><path d="M133.32,137.46a.74.74,0,0,0,0-1,.74.74,0,0,0-1.05,1A.74.74,0,0,0,133.32,137.46Z" style="fill: rgb(255, 255, 255); transform-origin: 132.836px 137.003px;" id="elir5scpvwe4" class="animable"></path><path d="M238.25,374.05a.73.73,0,0,0,0-1,.74.74,0,1,0-1,1A.73.73,0,0,0,238.25,374.05Z" style="fill: rgb(255, 255, 255); transform-origin: 237.652px 373.452px;" id="ellwcq770nin" class="animable"></path><path d="M280.1,288.85a.73.73,0,0,0,0-1,.74.74,0,0,0-1.06,1A.73.73,0,0,0,280.1,288.85Z" style="fill: rgb(255, 255, 255); transform-origin: 279.608px 288.391px;" id="el1qs1zb24638" class="animable"></path><path d="M158.62,323.84a.73.73,0,0,0,0-1,.73.73,0,1,0,0,1Z" style="fill: rgb(255, 255, 255); transform-origin: 158.088px 323.34px;" id="elygq9oqd3zn9" class="animable"></path><path d="M243.7,183.09a1.26,1.26,0,1,0-1.76-1.8,1.24,1.24,0,0,0,0,1.77A1.26,1.26,0,0,0,243.7,183.09Z" style="fill: rgb(255, 255, 255); transform-origin: 242.845px 182.162px;" id="elqutrw7908q" class="animable"></path><path d="M326.28,375.92a1.26,1.26,0,1,0-1.78,0A1.26,1.26,0,0,0,326.28,375.92Z" style="fill: rgb(255, 255, 255); transform-origin: 325.39px 375.028px;" id="elqvj4245qrp" class="animable"></path><path d="M173.8,271.45a1.26,1.26,0,1,0-1.78,0A1.25,1.25,0,0,0,173.8,271.45Z" style="fill: rgb(255, 255, 255); transform-origin: 172.91px 270.56px;" id="elwzvsqvi28w" class="animable"></path><path d="M394.4,241.31a1.26,1.26,0,1,0-1.78,0A1.25,1.25,0,0,0,394.4,241.31Z" style="fill: rgb(255, 255, 255); transform-origin: 393.51px 240.42px;" id="el3e4xsigi55y" class="animable"></path><path d="M104.84,226.12a1.26,1.26,0,1,0-1.78,0A1.26,1.26,0,0,0,104.84,226.12Z" style="fill: rgb(255, 255, 255); transform-origin: 103.95px 225.228px;" id="elcapfuh5lb8" class="animable"></path></g></g></g><g id="freepik--planet-2--inject-1" class="animable" style="transform-origin: 403.686px 114.881px;"><path d="M352.27,142.64c5.16,9.55,32.36,4.87,60.76-10.46s47.24-35.51,42.09-45.06-32.36-4.86-60.76,10.47S347.12,133.09,352.27,142.64Zm5.9-4.5c-4.21-7.79,12.52-25,37.36-38.38s48.39-18,52.59-10.18-12.52,25-37.36,38.39S362.37,145.93,358.17,138.14Z" style="fill: rgb(101, 19, 97); transform-origin: 403.695px 114.881px;" id="elj2obw262r8" class="animable"></path><g id="elp1c1dss59wp"><path d="M352.27,142.64c5.16,9.55,32.36,4.87,60.76-10.46s47.24-35.51,42.09-45.06-32.36-4.86-60.76,10.47S347.12,133.09,352.27,142.64Zm5.9-4.5c-4.21-7.79,12.52-25,37.36-38.38s48.39-18,52.59-10.18-12.52,25-37.36,38.39S362.37,145.93,358.17,138.14Z" style="fill: rgb(255, 255, 255); opacity: 0.6; transform-origin: 403.695px 114.881px;" class="animable"></path></g><path d="M360.9,134.88c4,7.41,25.82,3.39,48.74-9s38.25-28.4,34.25-35.81-25.81-3.38-48.73,9S356.91,127.48,360.9,134.88Zm4.78-3.6c-3.26-6,10.34-19.71,30.39-30.53S435,86.06,438.26,92.1s-10.34,19.71-30.38,30.53S368.94,137.32,365.68,131.28Z" style="fill: rgb(101, 19, 97); transform-origin: 402.396px 112.476px;" id="eltupqpuis3bp" class="animable"></path><g id="ela5gh8i66h7d"><path d="M360.9,134.88c4,7.41,25.82,3.39,48.74-9s38.25-28.4,34.25-35.81-25.81-3.38-48.73,9S356.91,127.48,360.9,134.88Zm4.78-3.6c-3.26-6,10.34-19.71,30.39-30.53S435,86.06,438.26,92.1s-10.34,19.71-30.38,30.53S368.94,137.32,365.68,131.28Z" style="fill: rgb(255, 255, 255); opacity: 0.5; transform-origin: 402.396px 112.476px;" class="animable"></path></g><path d="M369.07,128.67c3.14,5.81,20.27,2.65,38.26-7.06s30-22.3,26.89-28.11-20.27-2.66-38.26,7S365.93,122.85,369.07,128.67Zm3.75-2.83c-2.57-4.74,8.12-15.47,23.85-24s30.57-11.53,33.13-6.79-8.12,15.47-23.86,24S375.38,130.58,372.82,125.84Z" style="fill: rgb(101, 19, 97); transform-origin: 401.641px 111.083px;" id="elptodkid8twi" class="animable"></path><g id="el2j9ne7jqq9u"><path d="M369.07,128.67c3.14,5.81,20.27,2.65,38.26-7.06s30-22.3,26.89-28.11-20.27-2.66-38.26,7S365.93,122.85,369.07,128.67Zm3.75-2.83c-2.57-4.74,8.12-15.47,23.85-24s30.57-11.53,33.13-6.79-8.12,15.47-23.86,24S375.38,130.58,372.82,125.84Z" style="fill: rgb(255, 255, 255); opacity: 0.7; transform-origin: 401.641px 111.083px;" class="animable"></path></g><path d="M427.45,129.51a27.9,27.9,0,1,0-38.38,9.13A27.89,27.89,0,0,0,427.45,129.51Z" style="fill: rgb(101, 19, 97); isolation: isolate; transform-origin: 403.694px 114.881px;" id="el2tdv4wnn09o" class="animable"></path><g id="el8aunvyl1upo"><path d="M400.57,87.16h0a27.9,27.9,0,0,0-20.6,13.12c-.36.56-.67,1.17-1,1.74a27.71,27.71,0,0,0-2.53,18.78c.17.7.34,1.41.54,2.09a27.53,27.53,0,0,0,2.56,5.93,20,20,0,0,0,1.86,2.83,27,27,0,0,0,7.23,6.72,2.39,2.39,0,0,0,.44.29c.71.42,1.39.82,2.12,1.18a26.9,26.9,0,0,0,7.78,2.55,23.67,23.67,0,0,0,3,.35,27.87,27.87,0,0,0,25.46-13.2,27.26,27.26,0,0,0,3.42-8.41v0a3.5,3.5,0,0,0,.15-.73,25.44,25.44,0,0,0,.35-8.65.56.56,0,0,0,0-.31,27.11,27.11,0,0,0-2.61-8.75,13,13,0,0,0-1-1.84,12.89,12.89,0,0,0-1-1.69,19.88,19.88,0,0,0-1.94-2.47,27,27,0,0,0-6.44-5.54A27.69,27.69,0,0,0,400.57,87.16Z" style="fill: rgb(255, 255, 255); opacity: 0.2; transform-origin: 403.684px 114.886px;" class="animable"></path></g><g id="elecaf4t1czov"><g style="opacity: 0.2; transform-origin: 403.669px 114.887px;" class="animable"><path d="M402.39,142.74a27.82,27.82,0,0,0,25.06-13.21,26.67,26.67,0,0,0,3.2-7.49C424.84,128.79,415.77,138.38,402.39,142.74Z" style="fill: rgb(255, 255, 255); transform-origin: 416.52px 132.407px;" id="eld4q702tynsl" class="animable"></path><path d="M399,112c-5.4,3.39-14.78,11.41-21.11,13.42a8.65,8.65,0,0,0,.51,1.2c2.78-1.12,6.77-1.82,10.6-2.55,8-1.51,13.8-.86,20.05-8.59S405,108.29,399,112Z" style="fill: rgb(255, 255, 255); transform-origin: 394.442px 117.999px;" id="el4963it0plyj" class="animable"></path><path d="M431.61,114.62c-6.15,6.34-21.79,20.93-39.58,25.63a30.06,30.06,0,0,0,2.85,1.12c9.24-4.52,26.73-12.8,36.52-23.37A23.69,23.69,0,0,0,431.61,114.62Z" style="fill: rgb(255, 255, 255); transform-origin: 411.82px 127.995px;" id="eluafqfsi0uk" class="animable"></path><path d="M429.72,104.87a130.6,130.6,0,0,1-12.81,11.33c-9.44,7-25.17,14.71-34.44,16.76a24.61,24.61,0,0,0,3.49,3.43c10.21-3.58,33.77-13,45-27.2A26.48,26.48,0,0,0,429.72,104.87Z" style="fill: rgb(255, 255, 255); transform-origin: 406.715px 120.63px;" id="elmcftqo2bmm7" class="animable"></path><path d="M406.87,87.19a15.21,15.21,0,0,0-2.43-.19c-7.06,5.24-19.9,15.88-27.35,19.55a22.88,22.88,0,0,0-.84,3.43C383.48,103.88,400.35,92.65,406.87,87.19Z" style="fill: rgb(255, 255, 255); transform-origin: 391.56px 98.49px;" id="el7utq42k7xg" class="animable"></path><path d="M411.75,88.16c-5.79,4-12.62,10.38-15,13.42-2.74,3.59-14.9,11.16-21,12.51a10,10,0,0,0,0,1.34c10.84-6.32,29-10.37,35.65-13.48a71.06,71.06,0,0,0,11.85-6.86,27.26,27.26,0,0,0-5-4A27.82,27.82,0,0,0,411.75,88.16Z" style="fill: rgb(255, 255, 255); transform-origin: 399.489px 101.795px;" id="elov85zyej2e" class="animable"></path></g></g><g id="eljf4xrbgvksr"><path d="M424.78,96.65c-1.34,1.13-3,2.43-5,3.77C413.14,105,396,109.31,384.55,116c-4.28,2.51-6.72,4-8.11,4.81.17.7.34,1.41.54,2.09a90.14,90.14,0,0,0,10.85-5.43c7.26-4.24,15.77-8.23,21.82-9.66,4.61-1.1,13.33-6.1,17.07-8.67A19.88,19.88,0,0,0,424.78,96.65Z" style="opacity: 0.2; transform-origin: 401.58px 109.775px;" class="animable"></path></g><g id="eli2i8lyezlw"><path d="M427.75,100.81a185.62,185.62,0,0,0-16,14.71c-8.38,8.85-15.41,9.28-22.48,10.19a33,33,0,0,0-9.77,3.1,20,20,0,0,0,1.86,2.83A85.11,85.11,0,0,0,401.7,124c11.15-5.94,22.78-17.1,27.05-21.36A13,13,0,0,0,427.75,100.81Z" style="opacity: 0.2; transform-origin: 404.125px 116.225px;" class="animable"></path></g><g id="el19et6itl6dr"><path d="M431.36,111.4A97.49,97.49,0,0,1,406,130.13c-7.72,3.92-13.47,6.54-17.36,8.23a2.39,2.39,0,0,0,.44.29c.71.42,1.39.82,2.12,1.18,9-4.23,28.8-14.58,40.19-28.12A.56.56,0,0,0,431.36,111.4Z" style="opacity: 0.2; transform-origin: 410.02px 125.615px;" class="animable"></path></g><g id="elr845x4d9myd"><path d="M400.54,87.15a27.9,27.9,0,0,0-20.6,13.12c-.36.56-.67,1.17-1,1.74C384.74,98.92,395,92.8,400.54,87.15Z" style="opacity: 0.2; transform-origin: 389.74px 94.58px;" class="animable"></path></g><g id="eloqimdhb56j"><path d="M431,120.36c-5.51,4.58-19.85,16.2-27.74,19.79a34.74,34.74,0,0,0-4.32,2.23,23.67,23.67,0,0,0,3,.35c5.17-2.92,14.94-8.72,19.28-12.88,3.79-3.67,7.41-6.86,9.6-8.73v0A3.5,3.5,0,0,0,431,120.36Z" style="opacity: 0.2; transform-origin: 414.97px 131.545px;" class="animable"></path></g><g id="eldbh4au9rb84"><path d="M378.61,110.54s11.2-4.38,14.59-7.6a57,57,0,0,0,5.69-6.28S384,104,378.61,110.54Z" style="opacity: 0.2; transform-origin: 388.75px 103.6px;" class="animable"></path></g><path d="M357.82,133.27a6.6,6.6,0,0,0,.35,4.87c4.2,7.79,27.75,3.24,52.59-10.17s41.57-30.6,37.36-38.39a6.63,6.63,0,0,0-3.88-3l6.08-3.28a8.53,8.53,0,0,1,4.8,3.78c5.15,9.55-13.69,29.72-42.09,45.06s-55.6,20-60.76,10.46a8.47,8.47,0,0,1-.53-6.09Z" style="fill: rgb(101, 19, 97); transform-origin: 403.686px 115.425px;" id="elddo0swqty6o" class="animable"></path><g id="elt02niioypaf"><path d="M357.82,133.27a6.6,6.6,0,0,0,.35,4.87c4.2,7.79,27.75,3.24,52.59-10.17s41.57-30.6,37.36-38.39a6.63,6.63,0,0,0-3.88-3l6.08-3.28a8.53,8.53,0,0,1,4.8,3.78c5.15,9.55-13.69,29.72-42.09,45.06s-55.6,20-60.76,10.46a8.47,8.47,0,0,1-.53-6.09Z" style="fill: rgb(255, 255, 255); opacity: 0.6; transform-origin: 403.686px 115.425px;" class="animable"></path></g><path d="M365.2,129.29a4.24,4.24,0,0,0,.48,2c3.26,6,22.15,2.17,42.2-8.65s33.65-24.49,30.38-30.53a4.17,4.17,0,0,0-1.4-1.5L441.77,88a5.55,5.55,0,0,1,2.12,2.13c4,7.41-11.33,23.44-34.25,35.81s-44.74,16.4-48.74,9a5.6,5.6,0,0,1-.61-2.94Z" style="fill: rgb(101, 19, 97); transform-origin: 402.401px 113.323px;" id="elf2twgsczofe" class="animable"></path><g id="elkr51rbbsq2s"><path d="M365.2,129.29a4.24,4.24,0,0,0,.48,2c3.26,6,22.15,2.17,42.2-8.65s33.65-24.49,30.38-30.53a4.17,4.17,0,0,0-1.4-1.5L441.77,88a5.55,5.55,0,0,1,2.12,2.13c4,7.41-11.33,23.44-34.25,35.81s-44.74,16.4-48.74,9a5.6,5.6,0,0,1-.61-2.94Z" style="fill: rgb(255, 255, 255); opacity: 0.5; transform-origin: 402.401px 113.323px;" class="animable"></path></g><path d="M372.62,125.28a2.66,2.66,0,0,0,.2.56c2.56,4.74,17.39,1.7,33.12-6.79s26.42-19.23,23.86-24a3.25,3.25,0,0,0-.36-.47l4-2.15a4.25,4.25,0,0,1,.8,1c3.14,5.81-8.9,18.4-26.89,28.11s-35.12,12.87-38.26,7.06a3.87,3.87,0,0,1-.42-1.24Z" style="fill: rgb(101, 19, 97); transform-origin: 401.704px 111.97px;" id="elzrio0a6hu7" class="animable"></path><g id="elr8zta5xldjf"><path d="M372.62,125.28a2.66,2.66,0,0,0,.2.56c2.56,4.74,17.39,1.7,33.12-6.79s26.42-19.23,23.86-24a3.25,3.25,0,0,0-.36-.47l4-2.15a4.25,4.25,0,0,1,.8,1c3.14,5.81-8.9,18.4-26.89,28.11s-35.12,12.87-38.26,7.06a3.87,3.87,0,0,1-.42-1.24Z" style="fill: rgb(255, 255, 255); opacity: 0.7; transform-origin: 401.704px 111.97px;" class="animable"></path></g></g><g id="freepik--planet-1--inject-1" class="animable" style="transform-origin: 162.64px 75.3967px;"><path d="M134.83,75.4a27.82,27.82,0,1,0,27.82-27.83A27.82,27.82,0,0,0,134.83,75.4Z" style="fill: rgb(101, 19, 97); isolation: isolate; transform-origin: 162.65px 75.39px;" id="el2d481zq73xw" class="animable"></path><g id="elw8oo8wyih6n"><path d="M134.83,75.4a27.82,27.82,0,1,0,27.82-27.83A27.82,27.82,0,0,0,134.83,75.4Z" style="fill: rgb(255, 255, 255); opacity: 0.2; transform-origin: 162.65px 75.39px;" class="animable"></path></g><g id="ele3byhubs4q9"><circle cx="176.32" cy="84.91" r="5.65" style="opacity: 0.1; transform-origin: 176.32px 84.91px;" class="animable"></circle></g><g id="eli9ejjocis5o"><path d="M149.44,73.77a1,1,0,1,0,1-1A1,1,0,0,0,149.44,73.77Z" style="opacity: 0.1; transform-origin: 150.44px 73.77px;" class="animable"></path></g><g id="el4r9k3hnknn"><path d="M164.83,96.18a1,1,0,1,0,1-1A1,1,0,0,0,164.83,96.18Z" style="opacity: 0.1; transform-origin: 165.83px 96.18px;" class="animable"></path></g><g id="elxoej2emlbfq"><path d="M154.91,52.25a1,1,0,1,0,2.07,0,1,1,0,0,0-2.07,0Z" style="opacity: 0.1; transform-origin: 155.945px 52.25px;" class="animable"></path></g><g id="el59epg4m1xi3"><path d="M137.11,76.43a1,1,0,1,0,1-1A1,1,0,0,0,137.11,76.43Z" style="opacity: 0.1; transform-origin: 138.11px 76.43px;" class="animable"></path></g><g id="el8hl19up1t4b"><path d="M179.9,67.71a1,1,0,1,0,1-1A1,1,0,0,0,179.9,67.71Z" style="opacity: 0.1; transform-origin: 180.9px 67.71px;" class="animable"></path></g><g id="elj04c4dvjzb8"><path d="M165.86,59.94a3.58,3.58,0,1,0,3.58-3.58A3.58,3.58,0,0,0,165.86,59.94Z" style="opacity: 0.1; transform-origin: 169.44px 59.94px;" class="animable"></path></g><g id="elco0kjphc9wj"><path d="M145.86,92.61A3.58,3.58,0,1,0,149.44,89,3.57,3.57,0,0,0,145.86,92.61Z" style="opacity: 0.1; transform-origin: 149.44px 92.58px;" class="animable"></path></g><g id="elafdbt2bejbi"><path d="M134.81,75.4A27.82,27.82,0,0,0,185.9,90.65a25.67,25.67,0,0,1-6,.67,27.79,27.79,0,0,1-23.25-43.09A27.78,27.78,0,0,0,134.81,75.4Z" style="opacity: 0.1; transform-origin: 160.355px 75.7267px;" class="animable"></path></g></g><g id="freepik--Earth--inject-1" class="animable" style="transform-origin: 83.8286px 344.281px;"><path d="M75.37,308.61a45.27,45.27,0,1,0,52.93,36A45.28,45.28,0,0,0,75.37,308.61Z" style="fill: rgb(101, 19, 97); transform-origin: 83.8299px 353.083px;" id="elx319mvjtzhs" class="animable"></path><g id="elecdggva0eke"><path d="M39.36,361.55a45.27,45.27,0,1,0,36-52.94,45.24,45.24,0,0,0-23.14,12.07A45.16,45.16,0,0,0,39.36,361.55Z" style="fill: rgb(255, 255, 255); opacity: 0.2; transform-origin: 83.8265px 353.08px;" class="animable"></path></g><g id="el9v9zh4jso6n"><path d="M44.73,330.29c6.17.92,9.67.63,7.53,2.86a32.81,32.81,0,0,0-4.46,6.66s-.22,2,2.49,2.88,2.76.45,3.73,1.11,7.17,5.12,3.57,6.22-3.55,2.79-5.66,2.07-4.41,1.25-4.9,1.64a15.5,15.5,0,0,1-3.35.78l-5.12-1.18a44.44,44.44,0,0,0,.8,8.22,42.52,42.52,0,0,0,1.12,4.58,9.74,9.74,0,0,1,4.37,1.25c2.09,1.43,1.64,2.77,2.38,3.9s.92.63.92.63.16,1.85,1.58,2,4.73,3.28,5.38,3.73,4.43,1.13,5.11,2.95,1.14,1.78.53,3c-.47.95-1.73,2.68-5.51,4.54a44.62,44.62,0,0,0,12.28,7.13c-.94-2,3.89-7.51,4.37-11s.89-4.12,2.14-4.94,1.46,1,2.27,1.55a3.56,3.56,0,0,0,4.3-1.1,23.6,23.6,0,0,1,3.32-3.17s3.33-1.75,4-1.31,2.48,1.92,3.35,2,1.19-.37,2.09-1,3.65-4.33,2.73-4.71-2-2.31-2-2.31a23.38,23.38,0,0,0-2.52-2.57c-.51-.28.38-1.95.38-1.95s4.29.31,4.73-.34-.59-1.56.58-3.62,2.77-.95,4.31.6-.53.79-1.58,2.32-.78,1.49,2.11,1.43,1.39,1.08,1.94,1.32a20.81,20.81,0,0,1,2.57,2.47s-2.85,3.85-5.45,8,6,4.34,8.8,4.1c1.34-.11,3.59,1.92,5.1,4.67a45.14,45.14,0,0,0,14-33.21.46.46,0,0,1-.48-.22c-.5-.79-3.15-1.65-3.31-2.45s-2.91-1.28-3.63-2.47a4.71,4.71,0,0,1,.42-4.8c1.07-1.74,1.7-4.42,2.35-7.12.21-.86.37-1.21.61-1.19a45.33,45.33,0,0,0-27.53-24.46c-.21,3.29-1,6.69-3.23,6.86-4.38.34-4.13,3.35-3.38,6.46s-1.68,3.83-2.75,4.05-3.28,1.07-2.79,2.59,2.18,4.08-.14,3.93-3,2.93-4.31-1,1-5.26-1.13-6.68-4.08.77-7.37-.29-3.35-1.33-3.94-2.21.84-3,.28-6a3,3,0,0,0-4.4-2.28c-.85.61-3.93,4-3.43,5s-2.21,2.95-4.17,2.34-1.8-4.26-3.52-3a5,5,0,0,0-.38.34.61.61,0,0,1-.17.15A44.68,44.68,0,0,0,44.73,330.29Zm26.14,44.38c-3-1.11,0,0-.62-4.91s2.19.07,2.19.07a47,47,0,0,0,4.27-3.72c1.65-1.72,2.74,1.86,4.08,2.77s1.39,3.78-2,5.29c0,0-1,1.71-2,.53S73.9,375.79,70.87,374.67Zm-4.15,3.57c1.09,0,2.2,2.44.46,4.33l-2.87-1a15.42,15.42,0,0,1-.92-3.67C63.33,376.48,65.63,378.2,66.72,378.24ZM66.46,336c1.1-1.62,2.4-2.49,3.9-1.91,2.42.94,1.58,3.26,3.32,4.69s-2.42,5.81-2.42,5.81-1,2.95-3.81-.12-5-3.65-4.49-5.07S65.36,337.56,66.46,336Z" style="fill: rgb(255, 255, 255); opacity: 0.5; transform-origin: 83.8116px 352.52px;" class="animable"></path></g><g id="elxw9s2jbavne"><path d="M64,312.41C65.16,326,71.5,340,82.7,351.16c12.41,12.4,28.2,18.84,43.08,18.95a45.27,45.27,0,0,0-50.41-61.5A44.52,44.52,0,0,0,64,312.41Z" style="fill: rgb(255, 255, 255); opacity: 0.2; transform-origin: 96.5524px 338.961px;" class="animable"></path></g><path d="M101.23,298.72a8.52,8.52,0,1,0,8.51-8.51A8.52,8.52,0,0,0,101.23,298.72Z" style="fill: rgb(101, 19, 97); isolation: isolate; transform-origin: 109.75px 298.73px;" id="ely4bgx7kn4be" class="animable"></path><g id="el9gmvd7mwg3s"><path d="M101.23,298.72a8.52,8.52,0,1,0,8.51-8.51A8.52,8.52,0,0,0,101.23,298.72Z" style="fill: rgb(255, 255, 255); opacity: 0.2; transform-origin: 109.75px 298.73px;" class="animable"></path></g><g id="els2s8s972uca"><circle cx="113.93" cy="301.63" r="1.73" style="opacity: 0.1; transform-origin: 113.93px 301.63px;" class="animable"></circle></g><g id="el5qcdcp9r6z"><path d="M105.7,298.23a.31.31,0,0,0,.32.31.32.32,0,1,0,0-.63A.32.32,0,0,0,105.7,298.23Z" style="opacity: 0.1; transform-origin: 106.048px 298.225px;" class="animable"></path></g><g id="elx6tkb1kvn3"><path d="M110.41,305.08a.32.32,0,0,0,.32.32.32.32,0,1,0,0-.63A.31.31,0,0,0,110.41,305.08Z" style="opacity: 0.1; transform-origin: 110.758px 305.085px;" class="animable"></path></g><g id="ely2t1wg349u"><path d="M107.38,291.64a.32.32,0,1,0,.63,0,.32.32,0,1,0-.63,0Z" style="opacity: 0.1; transform-origin: 107.695px 291.64px;" class="animable"></path></g><g id="elfsytymxujvg"><path d="M101.93,299a.32.32,0,1,0,.63,0,.32.32,0,1,0-.63,0Z" style="opacity: 0.1; transform-origin: 102.245px 299px;" class="animable"></path></g><g id="el3gcooujeawd"><path d="M115,296.37a.32.32,0,0,0,.32.32.32.32,0,0,0,.32-.32.33.33,0,0,0-.32-.32A.32.32,0,0,0,115,296.37Z" style="opacity: 0.1; transform-origin: 115.32px 296.37px;" class="animable"></path></g><g id="el7n6zj6ppyd"><path d="M110.73,294a1.1,1.1,0,1,0,1.09-1.09A1.09,1.09,0,0,0,110.73,294Z" style="opacity: 0.1; transform-origin: 111.83px 294.01px;" class="animable"></path></g><g id="elavcb42vpipt"><path d="M104.61,304a1.1,1.1,0,1,0,1.09-1.09A1.09,1.09,0,0,0,104.61,304Z" style="opacity: 0.1; transform-origin: 105.71px 304.01px;" class="animable"></path></g><g id="el5pck1243u2w"><path d="M101.23,298.72a8.51,8.51,0,0,0,15.63,4.67,7.92,7.92,0,0,1-1.84.2,8.51,8.51,0,0,1-7.11-13.18A8.49,8.49,0,0,0,101.23,298.72Z" style="opacity: 0.1; transform-origin: 109.045px 298.824px;" class="animable"></path></g></g><g id="freepik--astronaut-helmet--inject-1" class="animable animator-active" style="transform-origin: 250.886px 223.379px;"><g id="elxl67sgob93d"><rect x="291.8" y="84.07" width="2" height="40.09" style="fill: rgb(38, 50, 56); transform-origin: 292.8px 104.115px; transform: rotate(-8.82deg);" class="animable"></rect></g><g id="el20rkpxodksk"><rect x="300.12" y="100.08" width="2" height="40.09" style="fill: rgb(38, 50, 56); transform-origin: 301.12px 120.125px; transform: rotate(-8.82deg);" class="animable"></rect></g><g id="elxwv6seba63"><g style="isolation: isolate; opacity: 0.6; transform-origin: 292.8px 104.115px;" class="animable"><g id="elz4yxg4skgu"><rect x="291.8" y="84.07" width="2" height="40.09" style="fill: rgb(255, 255, 255); transform-origin: 292.8px 104.115px; transform: rotate(-8.82deg);" class="animable"></rect></g></g></g><g id="elgzjx7nlorkv"><g style="isolation: isolate; opacity: 0.6; transform-origin: 301.12px 120.125px;" class="animable"><g id="el67bndg8erp3"><rect x="300.12" y="100.08" width="2" height="40.09" style="fill: rgb(255, 255, 255); transform-origin: 301.12px 120.125px; transform: rotate(-8.82deg);" class="animable"></rect></g></g></g><path d="M304.35,118.55l-1.07-1.68-10.19,1.58a8.54,8.54,0,0,0-.93,6Z" style="fill: rgb(38, 50, 56); transform-origin: 298.161px 120.66px;" id="ela7jx32flhy8" class="animable"></path><path d="M290.29,88h0a1.92,1.92,0,0,0,1.6-2.18l-.67-4.3a1.92,1.92,0,0,0-2.18-1.6h0a1.92,1.92,0,0,0-1.6,2.18l.67,4.3A1.92,1.92,0,0,0,290.29,88Z" style="fill: rgb(38, 50, 56); transform-origin: 289.665px 83.96px;" id="elmbau0466a" class="animable"></path><path d="M298.61,104h0a1.92,1.92,0,0,0,1.6-2.18l-.67-4.3a1.92,1.92,0,0,0-2.18-1.6h0a1.92,1.92,0,0,0-1.6,2.18l.67,4.3A1.92,1.92,0,0,0,298.61,104Z" style="fill: rgb(38, 50, 56); transform-origin: 297.985px 99.96px;" id="elzgwfwyjv6mj" class="animable"></path><g id="els3abr7luysq"><g style="isolation: isolate; opacity: 0.4; transform-origin: 289.665px 83.96px;" class="animable"><path d="M290.29,88h0a1.92,1.92,0,0,0,1.6-2.18l-.67-4.3a1.92,1.92,0,0,0-2.18-1.6h0a1.92,1.92,0,0,0-1.6,2.18l.67,4.3A1.92,1.92,0,0,0,290.29,88Z" style="fill: rgb(255, 255, 255); transform-origin: 289.665px 83.96px;" id="eluum4zqsntg" class="animable"></path></g></g><g id="elrqh79ubt05"><g style="isolation: isolate; opacity: 0.4; transform-origin: 297.985px 99.96px;" class="animable"><path d="M298.61,104h0a1.92,1.92,0,0,0,1.6-2.18l-.67-4.3a1.92,1.92,0,0,0-2.18-1.6h0a1.92,1.92,0,0,0-1.6,2.18l.67,4.3A1.92,1.92,0,0,0,298.61,104Z" style="fill: rgb(255, 255, 255); transform-origin: 297.985px 99.96px;" id="elilrw5deobrk" class="animable"></path></g></g><g id="elrdt4vzfv56s"><path d="M304.35,118.55l-1.07-1.68-10.19,1.58a8.54,8.54,0,0,0-.93,6Z" style="fill: rgb(255, 255, 255); opacity: 0.4; transform-origin: 298.161px 120.66px;" class="animable"></path></g><path d="M316.23,115.51s-42.13,8.6-40,22.28,44.93,9.43,44.93,9.43Z" style="fill: rgb(101, 19, 97); transform-origin: 298.656px 131.677px;" id="elqu3ak24tj5q" class="animable"></path><g id="el9p202h29kx9"><path d="M316.23,115.51s-42.13,8.6-40,22.28,44.93,9.43,44.93,9.43Z" style="fill: rgb(255, 255, 255); opacity: 0.6; transform-origin: 298.656px 131.677px;" class="animable"></path></g><path d="M314.25,114.76l3.64-.57c6.49-1,12.91,5.67,14.34,14.91s-2.66,17.54-9.15,18.55l-3.64.56c-6.49,1-12.91-5.67-14.34-14.9S307.76,115.76,314.25,114.76Z" style="fill: rgb(38, 50, 56); transform-origin: 318.665px 131.2px;" id="elzb9ynubbwan" class="animable"></path><g id="elyi5njys02x"><ellipse cx="320.49" cy="130.92" rx="11.89" ry="16.93" style="fill: rgb(255, 255, 255); opacity: 0.2; transform-origin: 320.49px 130.92px; transform: rotate(-8.82deg);" class="animable"></ellipse></g><g id="el7ierpniwwq"><ellipse cx="321.76" cy="130.72" rx="10.59" ry="15.09" style="fill: rgb(101, 19, 97); transform-origin: 321.76px 130.72px; transform: rotate(-8.82deg);" class="animable"></ellipse></g><g id="el5z53ntob0c9"><ellipse cx="321.76" cy="130.72" rx="10.59" ry="15.09" style="fill: rgb(255, 255, 255); opacity: 0.6; transform-origin: 321.76px 130.72px; transform: rotate(-8.82deg);" class="animable"></ellipse></g><g id="el0hpkb57qlu2"><path d="M313.9,126.62c.46,3,2.42,5.12,4.36,4.82s3.16-2.95,2.7-5.92-2.41-5.11-4.36-4.81S313.44,123.66,313.9,126.62Z" style="fill: rgb(255, 255, 255); opacity: 0.6; transform-origin: 317.43px 126.075px;" class="animable"></path></g><g id="elma65armmrh"><path d="M319.37,138.58c.46,3,2.41,5.12,4.36,4.82s3.15-3,2.69-5.91-2.41-5.12-4.35-4.82S318.91,135.62,319.37,138.58Z" style="fill: rgb(255, 255, 255); opacity: 0.6; transform-origin: 322.896px 138.035px;" class="animable"></path></g><g id="ell0d8lzlpw3s"><path d="M322.8,128c.46,3,2.41,5.12,4.36,4.81s3.15-2.94,2.69-5.91-2.41-5.12-4.36-4.81S322.34,125,322.8,128Z" style="fill: rgb(255, 255, 255); opacity: 0.6; transform-origin: 326.325px 127.45px;" class="animable"></path></g><path d="M143.35,263.28a113.08,113.08,0,0,0,27.34,58.05,52.59,52.59,0,0,1,12.55,27l1.39,8.94L357,330.49l-1.67-10.74a47.79,47.79,0,0,1,1.5-21,50.46,50.46,0,0,1,2.37-6.3,113.61,113.61,0,0,0-120.37-159,113.56,113.56,0,0,0-95.51,129.78Z" style="fill: rgb(101, 19, 97); transform-origin: 255.592px 244.738px;" id="el4whazze1rcm" class="animable"></path><g id="el5xl1bppunn"><path d="M143.35,263.28a113.08,113.08,0,0,0,27.34,58.05,52.59,52.59,0,0,1,12.55,27l1.39,8.94L357,330.49l-1.67-10.74c-.15-1-.27-1.95-.35-2.93a48,48,0,0,1,1.85-18,50.46,50.46,0,0,1,2.37-6.3,113.61,113.61,0,0,0-120.37-159,113.54,113.54,0,0,0-87.6,67.43A113.13,113.13,0,0,0,143.35,263.28Z" style="fill: rgb(255, 255, 255); opacity: 0.6; transform-origin: 255.598px 244.773px;" class="animable"></path></g><g id="el64am8lt1fwo"><path d="M143.35,263.28a113.08,113.08,0,0,0,27.34,58.05,52.59,52.59,0,0,1,12.55,27l1.39,8.94L357,330.49l-1.67-10.74c-.15-1-.27-1.95-.35-2.93-12.77,4.47-28.48,8.17-47.75,10.74-137.73,18.33-157.36-46-160.33-79.9-1.52-17.39,1.26-34.34,4.33-46.73A113.13,113.13,0,0,0,143.35,263.28Z" style="isolation: isolate; opacity: 0.2; transform-origin: 249.49px 279.1px;" class="animable"></path></g><path d="M188,332.5c-3.09-1.07-5.72-4.61-6.42-9.13s.73-8.69,3.35-10.64a16.11,16.11,0,0,1,5.73-3h0l.43-.08c4.73-.74,9.4,4,10.43,10.65s-2,12.57-6.72,13.31l-.43.05h0A15.94,15.94,0,0,1,188,332.5Z" style="fill: rgb(38, 50, 56); transform-origin: 191.562px 321.619px;" id="eld6xfae0vu7" class="animable"></path><g id="elk05h26fb8cs"><path d="M181.54,323.37c.91,5.84,5,10.05,9.21,9.4s6.84-5.91,5.93-11.75-5-10-9.21-9.4S180.64,317.53,181.54,323.37Z" style="fill: rgb(255, 255, 255); opacity: 0.2; transform-origin: 189.111px 322.199px;" class="animable"></path></g><g id="elayhachdc91n"><path d="M187.94,327.45c.2,1.3,1.11,2.23,2,2.09s1.51-1.31,1.31-2.61-1.11-2.23-2-2.08S187.73,326.16,187.94,327.45Z" style="fill: rgb(255, 255, 255); opacity: 0.2; transform-origin: 189.594px 327.194px;" class="animable"></path></g><g id="el7vz8wafnwpu"><path d="M184.66,317.41c.2,1.29,1.11,2.23,2,2.08s1.52-1.31,1.32-2.6-1.12-2.23-2.05-2.09S184.46,316.11,184.66,317.41Z" style="fill: rgb(255, 255, 255); opacity: 0.2; transform-origin: 186.318px 317.146px;" class="animable"></path></g><g id="elpt3wnmhbzqq"><rect x="177" y="336.01" width="187.78" height="16.55" style="fill: rgb(101, 19, 97); transform-origin: 270.89px 344.285px; transform: rotate(171.18deg);" class="animable"></rect></g><g id="elryz5l0bqkr"><rect x="177" y="336.01" width="187.78" height="16.55" style="isolation: isolate; opacity: 0.3; transform-origin: 270.89px 344.285px; transform: rotate(171.18deg);" class="animable"></rect></g><g id="elw0q4vxmeer"><rect x="177.76" y="345.76" width="60.58" height="16.55" style="isolation: isolate; opacity: 0.2; transform-origin: 208.05px 354.035px; transform: rotate(171.18deg);" class="animable"></rect></g><g id="elt35rnbkw1yn"><rect x="173.31" y="339.26" width="195.72" height="4.78" style="fill: rgb(101, 19, 97); transform-origin: 271.17px 341.65px; transform: rotate(171.18deg);" class="animable"></rect></g><g id="elooj7p3mbkzm"><rect x="174.23" y="345.2" width="195.72" height="4.78" style="fill: rgb(101, 19, 97); transform-origin: 272.09px 347.59px; transform: rotate(171.18deg);" class="animable"></rect></g><g id="eligeqk9kfag"><rect x="174.12" y="349.68" width="59.92" height="4.78" style="isolation: isolate; opacity: 0.2; transform-origin: 204.08px 352.07px; transform: rotate(171.18deg);" class="animable"></rect></g><g id="elaoynl3y1ltn"><rect x="175.04" y="355.61" width="59.92" height="4.78" style="isolation: isolate; opacity: 0.2; transform-origin: 205px 358px; transform: rotate(171.18deg);" class="animable"></rect></g><path d="M309.36,316.67c18.34-2.85,34.61-9.05,47.5-17.89a50.46,50.46,0,0,1,2.37-6.3,113.61,113.61,0,0,0-120.37-159,114.71,114.71,0,0,0-17.38,4c-35.34,18.72-56,73-52.19,107C173.76,283.79,226.49,329.53,309.36,316.67Z" style="fill: rgb(101, 19, 97); transform-origin: 269.041px 225.558px;" id="eltbaxzpyrp6c" class="animable"></path><g id="el8mmgruyvrc"><path d="M309.36,316.67c18.34-2.85,34.61-9.05,47.5-17.89a50.46,50.46,0,0,1,2.37-6.3,113.61,113.61,0,0,0-120.37-159,114.71,114.71,0,0,0-17.38,4c-35.34,18.72-56,73-52.19,107C173.76,283.79,226.49,329.53,309.36,316.67Z" style="fill: rgb(255, 255, 255); isolation: isolate; opacity: 0.2; transform-origin: 269.041px 225.558px;" class="animable"></path></g><path d="M309.83,149.38s18.73,22.7,22.09,57.22c0,0,9.47,1.54,15,15.1s-1.82,33.64-1.82,33.64,9.32,9.74,12.32,29.64c0,0-4.79,11.94-41.86,19.73s-79.69,2.84-116.9-24.3A57.79,57.79,0,0,0,196,251.52c-5.55-15.15-16.17-21.32-16.17-21.32s-.25-69,62.4-93.54C242.2,136.66,275.25,130.33,309.83,149.38Z" style="fill: rgb(101, 19, 97); transform-origin: 268.625px 221.851px;" id="elo7t67886ons" class="animable"></path><g id="el7j90f8gkmpt"><path d="M187.14,206.42s6.26-47.28,61.05-68.83c0,0,67.5-1.19,94.58,44.68s10.43,97,10.43,97,12.51-57-19.1-92.13c0,0,23.47,41.15,5.65,88,0,0-29.16-2.1-41.76-7.63,0,0-1.68-47.09-21.89-64.59,0,0,7,12.64-7.17,23S210.92,242.46,187.14,206.42Z" style="fill: rgb(255, 255, 255); opacity: 0.1; transform-origin: 272.702px 208.429px;" class="animable"></path></g><g id="elmb0bl49utjs"><ellipse cx="256.47" cy="158.46" rx="24.26" ry="15.43" style="fill: rgb(255, 255, 255); opacity: 0.1; transform-origin: 256.47px 158.46px; transform: rotate(-8.82deg);" class="animable"></ellipse></g><g id="elba7kkcruz8q"><path d="M241.32,181.7c-.07,2.05,2.48,3.81,5.71,3.92s5.89-1.46,6-3.51-2.49-3.8-5.71-3.92S241.39,179.66,241.32,181.7Z" style="fill: rgb(255, 255, 255); opacity: 0.1; transform-origin: 247.176px 181.905px;" class="animable"></path></g><g id="el3vsr445yohv"><rect x="141.51" y="148.77" width="2" height="100.13" style="fill: rgb(38, 50, 56); transform-origin: 142.51px 198.835px; transform: rotate(-8.82deg);" class="animable"></rect></g><g id="elxazmj09g0v"><rect x="153.21" y="216.56" width="2" height="40.09" style="fill: rgb(38, 50, 56); transform-origin: 154.21px 236.605px; transform: rotate(-8.82deg);" class="animable"></rect></g><g id="elua0vy0svb4"><g style="opacity: 0.4; transform-origin: 142.51px 198.835px;" class="animable"><g id="elmao5tdqq40l"><rect x="141.51" y="148.77" width="2" height="100.13" style="fill: rgb(255, 255, 255); transform-origin: 142.51px 198.835px; transform: rotate(-8.82deg);" class="animable"></rect></g></g></g><g id="elugsebk20dcs"><g style="opacity: 0.4; transform-origin: 154.21px 236.605px;" class="animable"><g id="eltiz03fn21d"><rect x="153.21" y="216.56" width="2" height="40.09" style="fill: rgb(255, 255, 255); transform-origin: 154.21px 236.605px; transform: rotate(-8.82deg);" class="animable"></rect></g></g></g><path d="M135.4,153h0a1.93,1.93,0,0,0,1.6-2.19l-.67-4.3a1.9,1.9,0,0,0-2.18-1.59h0a1.92,1.92,0,0,0-1.6,2.18l.67,4.3A1.92,1.92,0,0,0,135.4,153Z" style="fill: rgb(38, 50, 56); transform-origin: 134.775px 148.958px;" id="el3b1mvekvddh" class="animable"></path><path d="M151.7,220.44h0a1.92,1.92,0,0,0,1.6-2.18l-.67-4.3a1.92,1.92,0,0,0-2.18-1.6h0a1.93,1.93,0,0,0-1.6,2.19l.67,4.3A1.91,1.91,0,0,0,151.7,220.44Z" style="fill: rgb(38, 50, 56); transform-origin: 151.075px 216.401px;" id="elvkfvzbagi3" class="animable"></path><g id="el0umtrmzijyp"><g style="opacity: 0.2; transform-origin: 134.775px 148.958px;" class="animable"><path d="M135.4,153h0a1.93,1.93,0,0,0,1.6-2.19l-.67-4.3a1.9,1.9,0,0,0-2.18-1.59h0a1.92,1.92,0,0,0-1.6,2.18l.67,4.3A1.92,1.92,0,0,0,135.4,153Z" style="fill: rgb(255, 255, 255); transform-origin: 134.775px 148.958px;" id="elxj7rmln2mb" class="animable"></path></g></g><g id="elgcbxwinp8xo"><g style="opacity: 0.2; transform-origin: 151.075px 216.401px;" class="animable"><path d="M151.7,220.44h0a1.92,1.92,0,0,0,1.6-2.18l-.67-4.3a1.92,1.92,0,0,0-2.18-1.6h0a1.93,1.93,0,0,0-1.6,2.19l.67,4.3A1.91,1.91,0,0,0,151.7,220.44Z" style="fill: rgb(255, 255, 255); transform-origin: 151.075px 216.401px;" id="el346h33o4ozc" class="animable"></path></g></g><path d="M160.22,258.28c.65,4.23,1.51,8.35,2.5,12.41l14.9-2.31q-1.14-5-1.94-10.11c-9.3-59.93,21.24-114.8,68.73-125.45a112.86,112.86,0,0,1,56.13,8.69l1.21.53c-17.57-12-37.94-17.54-58.57-14.34l-8.9,1.38C183.53,137,150.37,194.8,160.22,258.28Z" style="fill: rgb(38, 50, 56); transform-origin: 230.119px 198.748px;" id="elhptjcfeo1id" class="animable"></path><g id="elqew0ay5v1dq"><path d="M160.22,258.28c.65,4.23,1.51,8.35,2.5,12.41l14.9-2.31q-1.14-5-1.94-10.11c-9.3-59.93,21.24-114.8,68.73-125.45a112.86,112.86,0,0,1,56.13,8.69l1.21.53c-17.57-12-37.94-17.54-58.57-14.34l-8.9,1.38C183.53,137,150.37,194.8,160.22,258.28Z" style="fill: rgb(255, 255, 255); isolation: isolate; opacity: 0.2; transform-origin: 230.119px 198.748px;" class="animable"></path></g><g id="eleujfhm0bc3i"><path d="M160.22,258.28c.65,4.23,1.51,8.35,2.5,12.41l8.89-1.38c-1-4.06-1.83-8.19-2.49-12.42-9.85-63.48,23.31-121.31,74.06-129.19l-8.9,1.38C183.53,137,150.37,194.8,160.22,258.28Z" style="fill: rgb(255, 255, 255); isolation: isolate; opacity: 0.2; transform-origin: 200.834px 199.195px;" class="animable"></path></g><path d="M157.32,293.46c-8.24-2.86-15.25-12.31-17.12-24.37s1.94-23.19,8.93-28.41c2.54-2,8.94-6.64,15.29-8.05h.05c.38-.08.76-.16,1.14-.22,12.64-2,25.11,10.77,27.85,28.43s-5.29,33.56-17.92,35.52c-.39.06-.77.11-1.16.14h0C167.85,297.08,160.34,294.6,157.32,293.46Z" style="fill: rgb(101, 19, 97); transform-origin: 166.861px 264.395px;" id="el65cj59cz3ah" class="animable"></path><g id="elyf7sxvuk78"><path d="M157.32,293.46c-8.24-2.86-15.25-12.31-17.12-24.37s1.94-23.19,8.93-28.41c2.54-2,8.94-6.64,15.29-8.05h.05c.38-.08.76-.16,1.14-.22,12.64-2,25.11,10.77,27.85,28.43s-5.29,33.56-17.92,35.52c-.39.06-.77.11-1.16.14h0C167.85,297.08,160.34,294.6,157.32,293.46Z" style="isolation: isolate; opacity: 0.3; transform-origin: 166.861px 264.395px;" class="animable"></path></g><g id="el6lesmacferg"><path d="M164.78,294.18a15.38,15.38,0,0,1-7.22-.63c3.17,1.18,10.46,3.51,16.77,2.94h0c.39,0,.78-.08,1.17-.14,12.64-2,20.66-17.87,17.92-35.53s-15.21-30.39-27.85-28.43c-.38.06-.77.14-1.15.22h0c-6.14,1.37-12.31,5.73-15,7.83a15.26,15.26,0,0,1,6.61-2.73c11.15-1.73,22.15,9.5,24.57,25.1S175.93,292.45,164.78,294.18Z" style="isolation: isolate; opacity: 0.2; transform-origin: 171.688px 264.385px;" class="animable"></path></g><path d="M150.83,282c-4.43-1.55-8.2-6.63-9.21-13.12s1-12.48,4.81-15.29c1.36-1.08,4.81-3.57,8.23-4.33h0l.62-.11c6.8-1.06,13.51,5.79,15,15.29s-2.84,18.07-9.64,19.12c-.21,0-.41.06-.62.08h0C156.5,283.93,152.46,282.6,150.83,282Z" style="fill: rgb(38, 50, 56); transform-origin: 155.967px 266.361px;" id="eljzgnivzd67" class="animable"></path><g id="el7b8khwlvxij"><path d="M150.83,282c-4.43-1.55-8.2-6.63-9.21-13.12s1-12.48,4.81-15.29c1.36-1.08,4.81-3.57,8.23-4.33h0l.62-.11c6.8-1.06,13.51,5.79,15,15.29s-2.84,18.07-9.64,19.12c-.21,0-.41.06-.62.08h0C156.5,283.93,152.46,282.6,150.83,282Z" style="fill: rgb(255, 255, 255); opacity: 0.1; transform-origin: 155.967px 266.361px;" class="animable"></path></g><g id="elnms3tseyw9l"><path d="M154.85,282.37A8.23,8.23,0,0,1,151,282c1.72.63,5.63,1.88,9,1.58h0l.61-.08c6.81-1.06,11.13-9.61,9.66-19.12s-8.19-16.35-15-15.3c-.19,0-.4.08-.6.13h0a22.87,22.87,0,0,0-8.08,4.2,8.35,8.35,0,0,1,3.55-1.46c6-.93,11.93,5.12,13.23,13.51S160.86,281.44,154.85,282.37Z" style="isolation: isolate; opacity: 0.3; transform-origin: 158.574px 266.3px;" class="animable"></path></g><g id="elj7xd0v6900p"><path d="M149.9,281.6a10.39,10.39,0,0,1-1.48-.84A10,10,0,0,0,149.9,281.6Z" style="fill: rgb(255, 255, 255); opacity: 0.2; transform-origin: 149.16px 281.18px;" class="animable"></path></g><g id="elkmqdt9h62x"><path d="M147.67,280.2a12.74,12.74,0,0,1-1.43-1.33A11.93,11.93,0,0,0,147.67,280.2Z" style="fill: rgb(255, 255, 255); opacity: 0.2; transform-origin: 146.955px 279.535px;" class="animable"></path></g><g id="elqjd7tfh89a"><path d="M146.24,278.87a13.61,13.61,0,0,1-1.3-1.59A12.83,12.83,0,0,0,146.24,278.87Z" style="fill: rgb(255, 255, 255); opacity: 0.2; transform-origin: 145.59px 278.075px;" class="animable"></path></g><g id="elw5ypzkepy"><path d="M153,278.6h0a1.25,1.25,0,0,0,1-1.43l-3-19.54a1.26,1.26,0,0,0-1.43-1.05h0a1.25,1.25,0,0,0-1,1.43l3,19.54A1.26,1.26,0,0,0,153,278.6Z" style="isolation: isolate; opacity: 0.3; transform-origin: 151.285px 267.59px;" class="animable"></path></g><path d="M180,286.29s42.74,51,128,37.79c41.12-6.38,54-27.76,54.84-29.35l0-.06,0,0-2.06-5.94S348.8,305,317.52,309.9c-44.59,6.92-91.06,1.87-125.14-30.76l-7.31,1.13Z" style="fill: rgb(38, 50, 56); transform-origin: 271.42px 302.703px;" id="elcjc8xrb6wzj" class="animable"></path><g id="eli9pvuqjgdl"><path d="M180,286.29s42.74,51,128,37.79c41.12-6.38,54-27.76,54.84-29.35l0-.06,0,0-2.06-5.94S348.8,305,317.52,309.9c-44.59,6.92-91.06,1.87-125.14-30.76l-7.31,1.13Z" style="fill: rgb(255, 255, 255); isolation: isolate; opacity: 0.2; transform-origin: 271.42px 302.703px;" class="animable"></path></g><g id="el7bf8mzack9w"><path d="M180,286.29s42.74,51,128,37.79c41.12-6.38,54-27.76,54.84-29.35-1.1,1.32-13.65,15.76-44.47,20.54-33.68,5.23-97.19,8.4-133.29-35Z" style="fill: rgb(255, 255, 255); isolation: isolate; opacity: 0.2; transform-origin: 271.42px 303.268px;" class="animable"></path></g><path d="M287.51,333.73l48.83-7.58A4.51,4.51,0,0,0,340.1,321h0a4.51,4.51,0,0,0-5.14-3.76l-48.83,7.58a4.51,4.51,0,0,0-3.76,5.14h0A4.51,4.51,0,0,0,287.51,333.73Z" style="fill: rgb(38, 50, 56); transform-origin: 311.236px 325.485px;" id="elzmwx4ndqc5m" class="animable"></path><g id="el95ln3dt01p6"><path d="M287.51,333.73l48.83-7.58A4.51,4.51,0,0,0,340.1,321h0a4.51,4.51,0,0,0-5.14-3.76l-48.83,7.58a4.51,4.51,0,0,0-3.76,5.14h0A4.51,4.51,0,0,0,287.51,333.73Z" style="fill: rgb(255, 255, 255); opacity: 0.2; transform-origin: 311.236px 325.485px;" class="animable"></path></g><path d="M232.11,339.79l52.84-8.2a2,2,0,0,0-.61-3.95l-52.45,8.14c-24-5.84-39.92-22.42-42.09-24.77l-16.92-49.64a2,2,0,1,0-3.79,1.29l17,50a2.26,2.26,0,0,0,.39.67c.71.81,17.62,19.93,44.81,26.4A2,2,0,0,0,232.11,339.79Z" style="fill: rgb(38, 50, 56); transform-origin: 227.774px 299.909px;" id="el2nh13bfbalt" class="animable"></path><g id="elau7aslqucbj"><g style="opacity: 0.4; transform-origin: 227.774px 299.909px;" class="animable"><path d="M232.11,339.79l52.84-8.2a2,2,0,0,0-.61-3.95l-52.45,8.14c-24-5.84-39.92-22.42-42.09-24.77l-16.92-49.64a2,2,0,1,0-3.79,1.29l17,50a2.26,2.26,0,0,0,.39.67c.71.81,17.62,19.93,44.81,26.4A2,2,0,0,0,232.11,339.79Z" style="fill: rgb(255, 255, 255); transform-origin: 227.774px 299.909px;" id="ell1vnrsni9d" class="animable"></path></g></g><path d="M164.74,255.72l6,17.6a2.18,2.18,0,0,0,.46.78,2.24,2.24,0,0,0,2.36.61l2.78-1a2.21,2.21,0,0,0,1.38-2.82l-6-17.61a2.21,2.21,0,0,0-2.82-1.38l-2,.68h0l-.82.28A2.22,2.22,0,0,0,164.74,255.72Z" style="fill: rgb(38, 50, 56); transform-origin: 171.223px 263.301px;" id="elhc4s8o5f2ji" class="animable"></path><g id="elvzty9xsak"><path d="M164.74,255.72l6,17.6a2.18,2.18,0,0,0,.46.78,2,2,0,0,0,.35-.09l2.38-.82a2.22,2.22,0,0,0,1.38-2.82L169.73,254a2.21,2.21,0,0,0-2.81-1.39h0l-.82.28A2.22,2.22,0,0,0,164.74,255.72Z" style="fill: rgb(255, 255, 255); opacity: 0.2; transform-origin: 170.022px 263.296px;" class="animable"></path></g><g id="elccv2mpliqya"><path d="M165.7,257.15a1.72,1.72,0,1,0,3.35-.52,1.72,1.72,0,1,0-3.35.52Z" style="fill: rgb(255, 255, 255); opacity: 0.2; transform-origin: 167.375px 256.89px;" class="animable"></path></g><g id="elt47evzsx2r"><path d="M170.13,269.81a1.72,1.72,0,1,0,1.36-2.28A1.89,1.89,0,0,0,170.13,269.81Z" style="fill: rgb(255, 255, 255); opacity: 0.2; transform-origin: 171.772px 269.23px;" class="animable"></path></g></g><defs>     <filter id="active" height="200%">         <feMorphology in="SourceAlpha" result="DILATED" operator="dilate" radius="2"></feMorphology>                <feFlood flood-color="#32DFEC" flood-opacity="1" result="PINK"></feFlood>        <feComposite in="PINK" in2="DILATED" operator="in" result="OUTLINE"></feComposite>        <feMerge>            <feMergeNode in="OUTLINE"></feMergeNode>            <feMergeNode in="SourceGraphic"></feMergeNode>        </feMerge>    </filter>    <filter id="hover" height="200%">        <feMorphology in="SourceAlpha" result="DILATED" operator="dilate" radius="2"></feMorphology>                <feFlood flood-color="#ff0000" flood-opacity="0.5" result="PINK"></feFlood>        <feComposite in="PINK" in2="DILATED" operator="in" result="OUTLINE"></feComposite>        <feMerge>            <feMergeNode in="OUTLINE"></feMergeNode>            <feMergeNode in="SourceGraphic"></feMergeNode>        </feMerge>            <feColorMatrix type="matrix" values="0   0   0   0   0                0   1   0   0   0                0   0   0   0   0                0   0   0   1   0 "></feColorMatrix>    </filter></defs></svg>